<?xml version="1.0" encoding="UTF-8"?>
<!-- Generator: Adobe Illustrator 23.0.2, SVG Export Plug-In . SVG Version: 6.00 Build 0)  -->
<svg version="1.1" id="Layer_1" xmlns="http://www.w3.org/2000/svg" xmlns:xlink="http://www.w3.org/1999/xlink" x="0px" y="0px" viewBox="0 0 60 15.9" style="enable-background:new 0 0 60 15.9;" xml:space="preserve">
<style type="text/css">
	.st0{fill:#BF9332;}
	.st1{fill:#231F20;}
</style>
<g>
	<g>
		<path class="st0" d="M11.2,13.4c-0.2,0-0.4,0.1-0.6,0.2L7.9,9.8L7.7,10l2.7,3.8C10.2,14,10,14.3,10,14.7c0,0.7,0.6,1.2,1.2,1.2    s1.2-0.6,1.2-1.2S11.9,13.4,11.2,13.4z"/>
		<path class="st0" d="M6.5,7.8L2.8,5C3,4.7,3.2,4.4,3.2,4c0-0.9-0.7-1.6-1.6-1.6S0,3.1,0,4s0.7,1.6,1.6,1.6c0.4,0,0.8-0.2,1.1-0.4    L6.4,8L6.5,7.8z"/>
		<path class="st0" d="M11.9,6.6c-0.4,0-0.7,0.3-0.7,0.7c0,0,0,0,0,0.1l-2.8,1l0.1,0.2l2.8-1C11.3,7.8,11.6,8,11.9,8    c0.4,0,0.7-0.3,0.7-0.7S12.3,6.6,11.9,6.6z"/>
	</g>
</g>
<g>
	<path class="st0" d="M17.7,4.9h0.6h1.1c0.5,0,1,0.1,1.3,0.4c0.3,0.2,0.5,0.6,0.5,1c0,0.5-0.2,1-0.7,1.3c-0.1,0.1-0.1,0.1-0.2,0.1   c0.1,0.1,0.2,0.1,0.3,0.2c0.4,0.3,0.5,0.6,0.5,1v0c0,0.6-0.3,1.2-0.8,1.6c-0.5,0.4-1.2,0.6-2,0.6h-1.1h-0.6L17.7,4.9z M17.8,10.1   h0.6c0.4,0,0.7-0.1,0.9-0.3c0.2-0.2,0.4-0.4,0.4-0.7c0-0.3-0.1-0.4-0.3-0.6S19,8.4,18.7,8.4h-0.5L17.8,10.1z M18.4,7.3h0.4   c0.3,0,0.6-0.1,0.8-0.2s0.3-0.3,0.3-0.6c0-0.2-0.1-0.3-0.2-0.4C19.5,6,19.3,6,19,6h-0.4L18.4,7.3z"/>
	<path class="st0" d="M22.6,4.9h0.6h0.6l-1.2,6.2h-0.6h-0.6L22.6,4.9z"/>
	<path class="st0" d="M24.7,10.5c-0.5-0.5-0.8-1.1-0.8-1.9c0-1,0.4-1.9,1.2-2.7s1.7-1.1,2.8-1.1c0.8,0,1.4,0.3,1.9,0.8   s0.8,1.1,0.8,1.9c0,1-0.4,1.9-1.2,2.7s-1.7,1.1-2.7,1.1C25.8,11.3,25.2,11,24.7,10.5z M28.6,9.4c0.5-0.5,0.8-1.1,0.8-1.8   c0-0.5-0.2-0.9-0.5-1.3s-0.7-0.5-1.2-0.5c-0.7,0-1.3,0.3-1.8,0.8c-0.5,0.5-0.8,1.1-0.8,1.8c0,0.5,0.2,0.9,0.5,1.3s0.7,0.5,1.2,0.5   C27.5,10.2,28.1,9.9,28.6,9.4z"/>
</g>
<path class="st1" d="M11,0c-0.6,0-1.1,0.5-1.1,1c0,0.4,0.2,0.6,0.4,0.8L7.8,7.4C7.7,7.4,7.5,7.3,7.3,7.3C6.5,7.3,5.8,8,5.8,8.8  c0,0.3,0.1,0.5,0.2,0.7l-3,2.2c-0.2-0.2-0.5-0.4-0.8-0.4c-0.6,0-1.2,0.5-1.2,1.2s0.5,1.2,1.2,1.2s1.2-0.5,1.2-1.2  c0-0.2-0.1-0.4-0.2-0.6l3-2.2c0.3,0.3,0.7,0.5,1.1,0.5c0.8,0,1.5-0.6,1.5-1.5c0-0.5-0.3-1-0.7-1.2L10.6,2c0.1,0,0.3,0.1,0.4,0.1  c0.6,0,1.1-0.5,1.1-1S11.6,0,11,0z"/>
<path class="st1" d="M32,4.9h0.3h1.5c0.7,0,1.2,0.1,1.5,0.4c0.4,0.3,0.5,0.7,0.5,1.2c0,0.7-0.3,1.2-0.8,1.7  c-0.4,0.3-0.9,0.5-1.5,0.6l1.3,2.3h-0.4h-0.4l-1.6-2.8h0.6c0.6,0,1.1-0.2,1.5-0.5c0.4-0.3,0.6-0.7,0.6-1.2c0-0.4-0.1-0.7-0.4-0.9  c-0.3-0.2-0.6-0.3-1.1-0.3h-1.2l-1.1,5.7h-0.3h-0.3L32,4.9z"/>
<path class="st1" d="M35.9,11.1l1.2-6.2h3.4l0,0.3l-0.1,0.3h-2.8l-0.4,2.2h2.7l0,0.3l0,0.3h-2.7l-0.4,2.3h2.8l0,0.3l0,0.3  C39.3,11.1,35.9,11.1,35.9,11.1z"/>
<path class="st1" d="M41.6,4.9h0.3h0.3l-1.2,6.2h-0.3h-0.3L41.6,4.9z"/>
<path class="st1" d="M45.4,11.2c-0.8,0-1.5-0.3-2-0.8s-0.8-1.1-0.8-1.9c0-1,0.4-1.9,1.2-2.6c0.8-0.8,1.8-1.2,2.8-1.2  c0.6,0,1.1,0.2,1.6,0.5s0.8,0.8,0.9,1.3h-0.8c-0.2-0.4-0.4-0.7-0.8-0.9S47,5.4,46.5,5.4c-0.9,0-1.7,0.3-2.3,0.9s-1,1.4-1,2.2  c0,0.6,0.2,1.2,0.7,1.6s1,0.6,1.6,0.6c0.8,0,1.5-0.3,2.2-1c0.3-0.3,0.5-0.6,0.6-0.9h-3.4L45,8.3h4.2c-0.2,0.7-0.5,1.3-1.1,1.8  C47.3,10.9,46.4,11.2,45.4,11.2z"/>
<path class="st1" d="M50.3,11.1H50h-0.3l1.2-6.2h0.4h0.4l2.5,5.2l1-5.2h0.3h0.3l-1.2,6.2h-0.3H54l-2.7-5.5L50.3,11.1z"/>
<path class="st1" d="M59.3,6.5c0.1-0.3,0-0.6-0.2-0.8s-0.4-0.3-0.7-0.3s-0.6,0.1-0.8,0.3s-0.4,0.5-0.5,0.8c0,0.3,0,0.5,0.1,0.7  c0.2,0.2,0.4,0.3,0.8,0.4c0.6,0.2,1,0.4,1.3,0.7c0.2,0.2,0.3,0.5,0.3,0.8c0,0.1,0,0.3,0,0.4c-0.1,0.5-0.4,0.9-0.8,1.3  c-0.4,0.3-0.9,0.5-1.5,0.5s-1-0.2-1.3-0.5c-0.2-0.3-0.3-0.6-0.3-0.9c0-0.1,0-0.3,0-0.4h0.6c-0.1,0.4,0,0.7,0.2,0.9  c0.2,0.3,0.5,0.4,0.8,0.4c0.4,0,0.7-0.1,1-0.4c0.3-0.2,0.5-0.5,0.5-0.9c0.1-0.4,0-0.6-0.2-0.9s-0.5-0.4-1-0.5  c-0.5-0.1-0.9-0.3-1.1-0.6c-0.2-0.2-0.2-0.4-0.2-0.7c0-0.1,0-0.2,0-0.3c0.1-0.5,0.3-0.9,0.7-1.2c0.4-0.3,0.8-0.5,1.3-0.5  c0.5,0,0.9,0.2,1.1,0.5C59.9,5.5,60,5.8,60,6.2c0,0.1,0,0.2,0,0.3H59.3z"/>
</svg>