<?xml version="1.0" encoding="utf-8"?>
<!-- Generator: Adobe Illustrator 24.0.0, SVG Export Plug-In . SVG Version: 6.00 Build 0)  -->
<svg version="1.1" id="Layer_1" xmlns="http://www.w3.org/2000/svg" xmlns:xlink="http://www.w3.org/1999/xlink" x="0px" y="0px"
	 viewBox="0 0 1920 153" style="enable-background:new 0 0 1920 153;" xml:space="preserve">
<style type="text/css">
	.st0{fill:#DDDBDB;}
	.st1{fill:#BF9332;}
	.st2{fill:#FFFFFF;}
</style>
<path class="st0" d="M1920.5,21.5v109H0V76.9c119.8-24.7,527.5-98.7,915.5-53.3c2.4,0.3,4.9,0.6,7.3,0.9c2.4,0.3,4.8,0.6,7.2,0.8
	c83.2,9.8,169.5,15.9,255.1,19.2c88.5,3.5,176.2,4,259,2.8c220-3.2,405.1-18.9,475.9-25.7C1920.2,21.5,1920.3,21.5,1920.5,21.5z"/>
<path class="st1" d="M1918,41.9v60.6h-0.5v0.9H299V73.2c0,0,200.9-33.6,461.2-45.5c68-3.1,140-4.7,213.6-3.9
	c69.7,0.8,140.7,3.8,210.9,9.9c8.3,0.7,16.6,1.4,25,2c117,9.2,239.9,12.8,356.6,13.3h0.1c130.5,0.6,253.2-2.9,351.1-7
	C1917.7,41.9,1917.8,41.9,1918,41.9z"/>
<path class="st2" d="M1920.5,46.9V153H0v-36.4c96.4-25,379.1-90.2,688-85c3.7,0.1,7.4,0.1,11.1,0.2c73.9,1.6,149.3,7.4,223.8,18.7
	c216.5,33,455.1,33.5,647.9,24.7h0.1c160.5-7.3,289.3-21.2,347.1-28c0.7-0.1,1.3-0.2,2-0.2C1920.2,46.9,1920.3,46.9,1920.5,46.9z"/>
<path class="st2" d="M1920.5,18.5v134h-0.5V18.6C1920.3,18.5,1920.5,18.5,1920.5,18.5z"/>
</svg>
