<?xml version="1.0" encoding="utf-8"?>
<!-- Generator: Adobe Illustrator 24.0.0, SVG Export Plug-In . SVG Version: 6.00 Build 0)  -->
<svg version="1.1" id="Layer_1" xmlns="http://www.w3.org/2000/svg" xmlns:xlink="http://www.w3.org/1999/xlink" x="0px" y="0px"
	 viewBox="0 0 1920 153" style="enable-background:new 0 0 1920 153;" xml:space="preserve">
<style type="text/css">
	.st0{fill:#DDDBDB;}
	.st1{fill:#BF9332;}
	.st2{fill:#F9F8F9;}
</style>
<path class="st0" d="M1920,81v68.8H11.9c-4,1.1-8,2-11.9,3.1V44.9c254.1-33,562.3-49.7,864.6-7.8c2.9,0.4,5.9,0.8,8.8,1.3
	c9.9,1.5,19.8,2.8,29.8,4.4c3.7,0.6,7.5,1.3,11.2,1.6c129.2,19.6,263.3,31.6,396.4,38.1c16.2,0.8,32.4,1.6,48.6,2.2
	c0.1,0,0.1,0,0.1,0c33.8,1.4,67.5,2.3,101,3.1c157.1,3.5,309.4,0.3,446.9-6C1911.6,81.4,1915.8,81.2,1920,81z"/>
<path class="st1" d="M1905.2,93.2v53.5H296.4v-3.6c0,0,81.3-22.9,208.1-45.1l0,0c73.8-12.9,163-25.7,260.6-33.5
	c57.6-4.7,118.1-7.7,180.2-8c14.3-0.1,28.6,0,43.1,0.2l0,0c75.2,1.1,152,6.4,227.9,17.3c2.4,0.3,4.6,0.6,6.9,0.9
	c29.8,4.2,60,7.9,90.4,10.9c33.4,3.4,67,6.1,100.7,8.3c0.1,0,0.1,0,0.1,0c18,1.2,35.8,2.1,53.8,3c114.2,5.4,227.1,4.6,328.8,1
	C1834.7,96.8,1871,95.1,1905.2,93.2z"/>
<path class="st2" d="M1920,79v74H0v-3.6c82.8-30.6,187.1-62.7,303-83.8C383.1,51,468.9,41.7,557.1,41.7c16.8,0,33.7,0.3,50.6,1
	c4,0.1,8.2,0.4,12.3,0.6c77.1,4,155.4,15.7,232.9,37.8c237.2,67.3,498.6,68.6,709.8,50.4h0.1c88.9-7.5,168.8-18.5,234.4-29.3
	c43.7-7.4,81-14.5,110.2-20.6C1911.8,80.7,1916,79.8,1920,79z"/>
</svg>
